<svg fill="none" viewBox="0 0 309.50624 95.249997" xmlns="http://www.w3.org/2000/svg">
    <path fill="currentColor" d="m 122.40552,93.40942 c -1.77934,-1.77933 -1.84012,-2.187 -1.81707,-12.1875 0.0334,-14.48816 0.0146,-14.47159 16.42685,-14.47159 h 11.2993 v 3 3 h -10.875 -10.875 v 8.25 8.25 h 10.875 10.875 v 3 3 h -12.03408 c -11.77695,0 -12.07344,-0.0394 -13.875,-1.84091 z m 33.78408,0.9447 c -0.825,-0.46783 -1.74795,-1.21694 -2.05101,-1.6647 -0.30306,-0.44775 -0.55619,-5.73991 -0.5625,-11.76035 -0.0148,-14.12172 -0.37429,-13.70527 12.13244,-14.0556 10.05859,-0.28175 11.99105,0.0119 14.12515,2.14594 1.33398,1.33398 1.48092,2.52615 1.48092,12.01501 0,10.18434 -0.0611,10.59521 -1.84091,12.375 -1.77263,1.77264 -2.21073,1.84006 -11.8125,1.8181 -6.00939,-0.0137 -10.56761,-0.36079 -11.47159,-0.8734 z m 19.125,-13.35379 v -8.25 h -8.25 -8.25 v 8.25 8.25 h 8.25 8.25 z m 11.25,0 v -14.25 h 2.47279 c 2.79413,0 4.19066,1.289 13.34605,12.31854 l 5.55616,6.69354 0.375,-9.31854 0.375,-9.31854 2.8125,-0.23278 2.8125,-0.23277 v 14.29527 14.29528 h -2.94204 c -2.84334,0 -3.21442,-0.32024 -11.0625,-9.54708 l -8.12046,-9.54708 -0.20991,9.54708 -0.2099,9.54708 h -2.6026 -2.60259 z m 34.97615,12.69556 c -1.97553,-1.55394 -1.97615,-1.55789 -1.97615,-12.63375 0,-14.6644 -0.87814,-13.85881 15.4515,-14.17479 l 12.2985,-0.23797 v 3.05047 3.05048 h -11.25 -11.25 v 8.25 8.25 h 11.25 11.25 v 3 3 h -11.89885 c -10.90211,0 -12.0644,-0.13022 -13.875,-1.55444 z m 46.02385,-9.69556 v -11.25 h -9 -9 v -3 -3 h 9.64886 c 8.62584,0 9.85837,0.1648 11.625,1.55443 l 1.97614,1.55444 v 12.69556 12.69557 h -2.625 -2.625 z m 10.67095,-2.8125 0.20405,-14.0625 h 12.25381 12.25382 l 1.80868,2.10432 c 2.47591,2.8806 2.63554,11.26723 0.27167,14.2724 -1.49365,1.89887 -1.80585,1.95993 -11.0625,2.16365 l -9.52548,0.20963 -0.22329,4.6875 -0.22328,4.6875 h -2.98076 -2.98076 z m 22.18265,-4.875 0.22859,-3.5625 h -8.29109 -8.2911 v 3.77537 3.77537 l 8.0625,-0.21287 8.0625,-0.21287 z M 118.3146,30.406 V 1.50067 h 25.01409 c 24.70588,0 25.04464,0.0208 27.49354,1.6875 5.01985,3.41647 5.59014,4.91683 5.87615,15.45922 0.14889,5.48871 -0.093,10.84487 -0.56965,12.61515 -1.04858,3.89411 -5.88785,8.48813 -8.94128,8.48813 -1.16757,0 -2.32442,0.20158 -2.57079,0.44794 -0.24637,0.24637 2.39738,3.80429 5.875,7.90648 4.19278,4.94579 6.32294,8.07961 6.32294,9.30206 0,1.81823 -0.0905,1.84352 -6.59357,1.84352 h -6.59358 l -8.04526,-9.75 -8.04525,-9.75 h -7.88471 c -6.14714,0 -7.97545,0.23647 -8.29648,1.07306 -0.22647,0.59018 -0.469,4.89331 -0.53895,9.5625 l -0.1272,8.48944 -6.1875,0.21783 -6.1875,0.21783 z m 45.75,-9.78033 v -7.125 h -16.5 c -10.46874,0 -16.51713,0.27415 -16.54687,0.75 -0.0258,0.4125 -0.0469,2.60625 -0.0469,4.875 0,2.26875 0.0211,5.1375 0.0469,6.375 l 0.0469,2.25 h 16.5 16.5 z m 27.76495,37.31134 c -1.43552,-0.72124 -3.37615,-2.45813 -4.3125,-3.85975 -1.68496,-2.52224 -1.70245,-2.80534 -1.70245,-27.5625 V 1.50067 h 6 6 v 22.88935 22.88934 l 16.6875,-0.20184 16.6875,-0.20185 0.1985,-22.6875 0.1985,-22.6875 h 6.01775 6.01774 l -0.21624,25.07126 c -0.20776,24.08658 -0.27787,25.15438 -1.78521,27.1875 -0.86293,1.16393 -2.68471,2.87561 -4.04841,3.80374 -2.4208,1.64758 -2.96031,1.68747 -22.80604,1.68634 -17.85508,-7.5e-4 -20.64394,-0.16062 -22.93664,-1.3125 z m 66.72743,-0.37384 c -3.79758,-2.58461 -5.27719,-5.09976 -5.7617,-9.79412 l -0.44053,-4.26838 h 6.10493 c 6.01192,0 6.10492,0.0286 6.10492,1.875 v 1.875 h 16.5 16.5 v -5.625 -5.625 h -17.625 -17.625 v -6 -6 h 16.5 16.5 v -5.25 -5.25 h -15.375 -15.375 v 2.25 2.25 h -6 -6 l 0.005,-2.8125 c 0.007,-4.59129 1.31523,-7.96814 4.15389,-10.72077 l 2.67273,-2.59173 20.0221,-0.20402 c 18.95065,-0.19311 20.15291,-0.12324 22.46645,1.30564 4.60507,2.84416 5.42469,5.23691 5.42784,15.84565 0.002,7.1015 0.2969,10.0368 1.18723,11.82151 0.94094,1.88615 1.13366,4.36603 0.9375,12.06324 -0.21362,8.38239 -0.4564,9.97418 -1.80023,11.8035 -3.29558,4.48617 -4.70643,4.73703 -26.64828,4.73832 -19.45684,0.002 -20.01307,-0.0406 -22.43104,-1.68634 z">
    </path>
    <path fill="currentColor" d="m 45.671335,89.29779 -4.170686,-5.9522 -3.730653,-5.51192 -3.730654,-5.51193 V 67.2685 62.21527 L 25.445822,49.19626 16.852302,36.17725 8.426152,23.43752 0,10.69778 3.617429,5.35632 7.234859,0.01485 h 12.110246 12.110248 l 1.769944,2.01077 1.769945,2.01077 20.939574,0.0123 20.939574,0.0123 1.89088,-2.0305 L 80.65615,0 l 12.05023,0.11974 12.05023,0.11974 3.56197,5.11128 3.56198,5.11127 -0.82047,1.40246 -0.82049,1.40245 -7.39865,11.23056 -7.39867,11.23055 -7.40764,11.23056 -7.40763,11.23056 -1.50655,2.29261 -1.50655,2.2926 v 5.13142 5.13142 L 69.901897,84.14361 62.189887,95.25 h -6.173932 -6.173928 z m 18.499392,-18.75503 7.71157,-12.80283 5.827333,-9.65829 5.82733,-9.65828 8.00609,-13.25205 8.00608,-13.25206 -43.384249,-0.11456 -43.384239,-0.11454 -0.182723,0.18272 -0.182724,0.18272 2.333238,3.72298 2.333242,3.72297 1.028552,1.82413 1.028558,1.82413 2.474514,4.04301 2.47452,4.043 4.464659,7.41217 4.464663,7.41216 11.118089,18.41812 11.118093,18.41811 0.215507,0.36064 0.215515,0.36062 0.387402,-0.13601 0.38741,-0.13603 z m -18.900825,-20.05203 -1.57228,-1.10775 -0.756784,-2.11064 -0.756784,-2.11064 0.258297,-1.12306 0.258303,-1.12305 0.578191,-1.15001 0.578185,-1.15001 2.840241,-0.52347 2.840243,-0.52348 0.673834,-0.86034 0.673833,-0.86035 0.765244,-1.39687 0.765251,-1.39686 3.502361,0.007 3.50236,0.007 0.49438,0.33004 0.49437,0.33004 1.19049,1.90071 1.19048,1.9007 1.01048,0.23502 1.01047,0.23504 1.79689,0.3533 1.79689,0.35332 0.78926,1.55395 0.78925,1.55396 -0.22161,1.92731 -0.22162,1.92731 -0.47465,0.88688 -0.47464,0.8869 -1.76503,1.11421 -1.76503,1.11421 -2.75357,-0.64237 -2.75358,-0.64237 -0.1818,-0.1818 -0.18181,-0.18182 -0.82324,-2.43039 -0.82323,-2.43041 -1.399613,-0.13924 -1.399601,-0.13925 -0.749215,2.60997 -0.749215,2.60997 -0.124864,0.14243 -0.124848,0.14241 -2.627787,0.62772 -2.627779,0.62772 -0.449222,-0.0224 -0.449223,-0.0224 -1.572278,-1.10775 z m 22.082015,-12.14556 -2.35769,-1.65048 0.0923,-2.55793 0.0923,-2.55794 2.03642,-1.65138 2.03642,-1.65139 0.90151,0.13221 0.90149,0.13221 0.84763,1.45552 0.84764,1.45551 -0.31939,3.40833 -0.31939,3.40832 -0.92712,0.86375 -0.92712,0.86374 h -0.27367 -0.27367 z m -26.696315,0.56877 -0.795908,-0.60391 -0.274283,-3.55678 -0.274278,-3.55678 0.744805,-1.4403 0.744811,-1.44031 h 1.128914 1.128919 l 1.817634,1.69547 1.817629,1.69548 0.186549,2.45983 0.186541,2.45984 -2.241352,1.45996 -2.241349,1.45998 -0.566362,-0.0143 -0.566362,-0.0143 -0.795908,-0.60391 z m 8.722468,-8.10046 -2.311279,-2.44384 v -2.07835 -2.07837 l 1.193838,-1.5652 1.193837,-1.56521 1.538816,0.13521 1.538824,0.1352 0.861126,2.45348 0.861117,2.45348 v 2.97739 2.97738 l -1.144195,0.52133 -1.144196,0.52133 h -0.138312 -0.138313 z m 9.486777,1.62799 -0.55555,-0.35285 -0.36341,-2.67252 -0.36341,-2.67252 0.50231,-2.4969 0.50231,-2.4969 0.33085,-0.53535 0.33086,-0.53535 h 1.23304 1.23303 l 1.4399,1.4856 1.43989,1.48559 0.15892,1.77127 0.15893,1.77127 -0.46166,0.89844 -0.46166,0.89845 -1.59339,1.90919 -1.59339,1.9092 -0.69101,-0.007 -0.69101,-0.007 -0.55555,-0.35285 z m -17.473611,-6.02812 0.272619,-1.01743 0.0061,-0.56153 0.0061,-0.56153 h 0.449222 0.449222 v 1.29961 1.2996 l -0.727974,0.27935 -0.727973,0.27935 z m 28.136661,-0.65806 v -1.66212 l 0.41744,0.42677 0.41743,0.42675 0.3051,1.23537 0.30511,1.23536 h -0.72254 -0.72254 z M 59.195787,18.65758 V 17.0853 h 0.21425 0.21426 l 0.76098,1.1614 0.76097,1.1614 -0.63831,0.404 -0.63832,0.404 -0.33691,0.007 -0.33692,0.007 z m -8.535217,0.7236 v -0.39945 l 0.883495,-1.06052 0.883502,-1.06052 0.01493,1.45998 0.01494,1.45997 h -0.898445 -0.898445 v -0.39946 z">
    </path>
</svg>
