<svg fill="none" viewBox="0 0 186.7905 159.02475" xmlns="http://www.w3.org/2000/svg">
  <path fill="currentColor" d="m 76.250667,149.08736 -6.96318,-9.9375 -6.22852,-9.20245 -6.228519,-9.20245 v -8.43664 -8.43663 L 42.483121,82.135774 28.135793,60.399864 14.067897,39.130224 0,17.860574 6.039486,8.94272 12.078973,0.02486 h 20.218683 20.218687 l 2.955015,3.35708 2.955015,3.35708 34.959704,0.0205 34.959713,0.0205 3.15692,-3.39001 L 134.65963,0 l 20.11848,0.19992 20.11848,0.19991 5.94691,8.53354 5.9469,8.533534 -1.36983,2.34146 -1.36983,2.34147 -12.35245,18.75 -12.35245,18.75 -12.36744,18.75 -12.36743,18.75 -2.51526,3.827626 -2.51526,3.82762 v 8.56717 8.56717 l -12.8756,18.5427 -12.8756,18.5427 H 93.521547 83.213857 Z m 30.885693,-31.3125 12.87487,-21.374996 9.72903,-16.125 9.72904,-16.125 13.36657,-22.125 13.36656,-22.125 -72.432243,-0.19125 -72.432241,-0.19125 -0.305067,0.30507 -0.305067,0.30507 3.895461,6.2157 3.89547,6.2157 1.717222,3.04548 1.71723,3.04548 4.13133,6.75 4.131338,6.75 7.45398,12.375 7.453987,12.375 18.562227,30.749996 18.56223,30.75 0.35981,0.6021 0.35981,0.60208 0.64679,-0.22708 0.64679,-0.2271 z m -31.555913,-33.477896 -2.625,-1.84944 -1.26349,-3.52383 -1.26349,-3.52383 0.43124,-1.875 0.43125,-1.875 0.96532,-1.92 0.96531,-1.92 4.74193,-0.87396 4.74193,-0.87397 1.125,-1.43639 1.125,-1.4364 1.27762,-2.33214 1.27762,-2.33214 5.84738,0.0115 5.84738,0.0115 0.825383,0.55101 0.82539,0.55102 1.98757,3.17333 1.98758,3.17332 1.68705,0.39239 1.68703,0.3924 3,0.58987 3,0.58988 1.3177,2.5944 1.3177,2.59441 -0.36999,3.21774 -0.37,3.21775 -0.79245,1.4807 -0.79245,1.48071 -2.9468,1.86023 -2.94681,1.86024 -4.59723,-1.07247 -4.597233,-1.07246 -0.30354,-0.30354 -0.30354,-0.30355 -1.37444,-4.05767 -1.37443,-4.05768 -2.33672,-0.23248 -2.33671,-0.23248 -1.25085,4.35748 -1.25086,4.35748 -0.20846,0.23778 -0.20845,0.23778 -4.38722,1.04801 -4.38722,1.048 -0.75,-0.0375 -0.75,-0.0375 -2.625,-1.84944 z m 36.867073,-20.27765 -3.93627,-2.75555 0.15411,-4.27061 0.15411,-4.27061 3.39991,-2.75707 3.39992,-2.75708 1.5051,0.22073 1.5051,0.22074 1.41516,2.43006 1.41517,2.43005 -0.53324,5.69038 -0.53323,5.69038 -1.54788,1.44206 -1.54787,1.44207 h -0.45691 -0.4569 z m -44.570883,0.94959 -1.32881,-1.00825 -0.45793,-5.93824 -0.45792,-5.93823 1.24349,-2.40466 1.2435,-2.40466 h 1.88478 1.88479 l 3.03463,2.83068 3.03463,2.83068 0.31145,4.10682 0.31144,4.10682 -3.74205,2.4375 -3.74205,2.4375 -0.94557,-0.0239 -0.94557,-0.0238 -1.32881,-1.00825 z m 14.56261,-13.52414 -3.8588,-4.08011 v -3.46993 -3.46994 l 1.99318,-2.61318 1.99317,-2.61319 2.56914,0.22573 2.56914,0.22572 1.43769,4.09621 1.43768,4.09622 v 4.9709 4.9709 l -1.91029,0.87038 -1.91029,0.87039 h -0.23092 -0.23092 z m 15.83868,2.71802 -0.92753,-0.58911 -0.60673,-4.46191 -0.60673,-4.4619 0.83863,-4.16871 0.83862,-4.16871 0.55239,-0.89379 0.55239,-0.89379 h 2.058623 2.05861 l 2.40398,2.48028 2.40397,2.48027 0.26534,2.95723 0.26533,2.95722 -0.77076,1.5 -0.77076,1.5 -2.66025,3.1875 -2.66024,3.1875 -1.15368,-0.0115 -1.153683,-0.0115 -0.92752,-0.58911 z m -29.17311,-10.06427 0.45515,-1.69865 0.0103,-0.9375 0.0102,-0.9375 h 0.75 0.75 v 2.16976 2.16976 l -1.21539,0.46639 -1.21539,0.46638 z m 46.975633,-1.09865 v -2.775 l 0.69693,0.7125 0.69692,0.7125 0.50939,2.0625 0.50938,2.0625 h -1.20631 -1.20631 z m -17.250003,-11.85 v -2.625 h 0.35771 0.35771 l 1.270493,1.93901 1.27049,1.93901 -1.0657,0.67451 -1.065703,0.6745 -0.5625,0.0115 -0.5625,0.0115 z m -14.25,1.20809 v -0.66691 l 1.47505,-1.77059 1.47505,-1.77059 0.025,2.4375 0.025,2.4375 h -1.5 -1.5 v -0.66691 z">
  </path>
</svg>
